<?xml version="1.0" encoding="UTF-8" standalone="no"?>
<!-- Created with Inkscape (http://www.inkscape.org/) -->

<svg
   width="128"
   height="128"
   viewBox="0 0 33.866666 33.866666"
   version="1.1"
   id="svg5"
   sodipodi:docname="jedn-hi.svg"
   inkscape:version="1.1 (c4e8f9ed74, 2021-05-24)"
   xmlns:inkscape="http://www.inkscape.org/namespaces/inkscape"
   xmlns:sodipodi="http://sodipodi.sourceforge.net/DTD/sodipodi-0.dtd"
   xmlns="http://www.w3.org/2000/svg"
   xmlns:svg="http://www.w3.org/2000/svg">
  <sodipodi:namedview
     id="namedview7"
     pagecolor="#505050"
     bordercolor="#eeeeee"
     borderopacity="1"
     inkscape:pageshadow="0"
     inkscape:pageopacity="0"
     inkscape:pagecheckerboard="0"
     inkscape:document-units="px"
     showgrid="false"
     showguides="true"
     inkscape:lockguides="true"
     units="px"
     scale-x="1"
     objecttolerance="20"
     inkscape:guide-bbox="true"
     guidetolerance="20"
     inkscape:zoom="4.359103"
     inkscape:cx="37.966527"
     inkscape:cy="69.853821"
     inkscape:window-width="1920"
     inkscape:window-height="1052"
     inkscape:window-x="0"
     inkscape:window-y="28"
     inkscape:window-maximized="1"
     inkscape:current-layer="layer1" />
  <defs
     id="defs2" />
  <g
     inkscape:label="Background"
     inkscape:groupmode="layer"
     id="layer1">
    <path
       id="rect544"
       style="opacity:1;fill:#ffffff;fill-opacity:1;fill-rule:evenodd;stroke-width:0.999999"
       d="M 32 0 C 14.272001 0 0 14.272001 0 32 L 0 96 C 0 113.728 14.272001 128 32 128 L 96 128 C 113.728 128 128 113.728 128 96 L 128 32 C 128 14.272001 113.728 0 96 0 L 32 0 z M 75.458984 11.273438 L 98.162109 11.349609 L 98.162109 83.230469 C 98.162109 89.874782 96.588803 95.64055 93.441406 100.5293 C 90.329373 105.38461 85.997463 109.14467 80.445312 111.81055 C 74.893162 114.44287 68.439699 115.74742 61.083984 115.72266 C 54.541642 115.70063 48.599732 114.57259 43.259766 112.33984 C 37.955164 110.10721 33.746799 106.7376 30.634766 102.23047 C 27.522732 97.723336 25.984167 92.046709 26.019531 85.201172 L 48.882812 85.279297 C 48.953541 89.373506 50.19095 92.565488 52.595703 94.855469 C 55.03582 97.112012 58.253867 98.246313 62.25 98.259766 C 70.984911 98.289172 75.388256 93.254757 75.458984 83.154297 L 75.458984 11.273438 z "
       transform="scale(0.26458333)" />
    <path
       style="fill:#ffffff;fill-opacity:1;stroke-width:0.229405"
       d="m 28.675624,127.74037 c -1.716146,-0.18464 -5.427667,-1.06042 -7.313546,-1.72572 C 12.029298,122.7222 4.7718563,115.26426 1.7177003,105.82754 0.06143232,100.71001 0.14733364,102.74169 0.05605642,66.527448 -0.02683921,33.638606 0.05496879,29.114162 0.79746033,25.523618 3.3971904,12.951827 13.137773,3.3568484 26.037467,0.66090152 28.00767,0.24914268 29.744349,0.22940499 64.003993,0.22940499 c 39.954487,0 37.114837,-0.1044148 42.095817,1.54787821 11.08326,3.6765459 19.46738,13.5040158 21.33268,25.0051808 0.51668,3.185738 0.51668,71.257321 0,74.443056 -1.38016,8.50985 -6.54403,16.50297 -13.73152,21.25495 -3.39844,2.24686 -6.48544,3.56891 -10.92753,4.67987 l -2.40875,0.60243 -35.443077,0.032 c -19.493689,0.0176 -35.804384,-0.007 -36.245989,-0.0544 z m 39.488941,-12.33934 c 10.60208,-1.41143 18.841688,-5.87742 24.215604,-13.12522 2.384229,-3.215604 3.977823,-6.696456 5.075975,-11.087325 l 0.602424,-2.408752 0.06856,-38.638004 C 98.182288,19.05718 98.138618,11.467502 97.903757,11.318445 97.743196,11.216543 92.581026,11.131587 86.43227,11.129655 l -11.179557,-0.0035 -0.06269,38.253283 -0.06269,38.253283 -0.531006,1.718904 c -0.717019,2.321053 -1.681827,4.064458 -2.97625,5.378072 -2.19853,2.231127 -4.448949,3.104891 -8.445916,3.279271 -4.591674,0.200328 -7.684895,-0.777605 -10.394568,-3.286286 -2.157134,-1.997124 -3.674359,-5.460757 -3.683533,-8.40904 l -0.0034,-1.089674 h -8.107404 c -4.459071,0 -9.688994,-0.06846 -11.62205,-0.152125 l -3.514647,-0.152125 0.14363,2.618229 c 0.176456,3.216551 0.642935,5.944601 1.428751,8.355561 2.056031,6.308102 6.561804,11.622512 12.839628,15.143912 3.359239,1.88429 9.12429,3.68044 13.879002,4.32412 3.207162,0.43419 10.897567,0.45584 14.024986,0.0395 z"
       id="path1454"
       transform="scale(0.26458333)" />
    <path
       style="fill:#ffffff;fill-opacity:1;stroke-width:0.229405"
       d="M 27.903624,127.63644 C 21.876423,126.84924 15.373494,123.8934 11.002541,119.95423 4.4029496,114.00658 0.82378372,106.70652 0.2276389,97.977738 -0.04930544,93.922706 -0.05727233,34.091631 0.21860942,30.166757 0.55083422,25.44031 1.4304952,22.022876 3.3225606,18.108081 7.6742087,9.1042648 16.036033,2.6850967 26.074339,0.642098 c 1.90116,-0.38692465 4.269468,-0.41269301 37.929654,-0.41269301 33.563823,0 36.032907,0.0266818 37.913737,0.40971104 11.72181,2.38712237 20.88814,10.55100797 24.45959,21.78465297 1.45152,4.565586 1.39942,3.017578 1.39942,41.580224 0,38.822577 0.0635,37.034347 -1.48645,41.823547 -3.50366,10.82558 -11.95632,18.47602 -23.66235,21.41661 l -2.03385,0.51091 -35.557774,0.0435 c -19.93915,0.0244 -36.249552,-0.0468 -37.132692,-0.16216 z m 40.265965,-12.2677 c 8.756444,-1.1322 15.969081,-4.43566 21.279759,-9.74634 4.028677,-4.02868 6.534037,-8.545118 8.00678,-14.433915 l 0.602411,-2.408752 0.06858,-38.510288 C 98.178189,21.592564 98.128619,11.678338 97.933024,11.442649 97.71627,11.181479 95.71064,11.126142 86.461526,11.126142 H 75.252711 l -0.06269,38.253283 -0.06269,38.253283 -0.531006,1.718904 c -1.094775,3.54388 -2.88128,5.904111 -5.542615,7.322587 -3.627303,1.933333 -10.111768,1.86439 -13.829602,-0.147035 -3.573912,-1.933561 -6.115464,-6.169533 -6.12805,-10.213535 l -0.0034,-1.089674 h -8.107404 c -4.459071,0 -9.6723,-0.06773 -11.584953,-0.150519 l -3.477548,-0.15052 v 1.475616 c 0,4.437034 1.119765,9.318146 2.993435,13.048533 4.370769,8.701995 13.187252,14.221975 25.452785,15.935935 3.136191,0.43825 10.358626,0.43079 13.800605,-0.0143 z"
       id="path1493"
       transform="scale(0.26458333)" />
    <path
       style="fill:#f34a4a;fill-opacity:1;stroke-width:0.229405"
       d="M 28.675624,127.74055 C 16.930191,126.47066 6.5531154,118.54172 2.3172997,107.60061 1.118998,104.5054 0.48295434,101.6201 0.22656354,98.116335 -0.06192366,94.173955 -0.05920108,33.902248 0.22964332,29.937352 1.3032235,15.200578 11.540852,3.6020713 26.090253,0.63911603 c 1.880839,-0.38302919 4.349918,-0.40971104 37.91374,-0.40971104 39.771587,0 37.132377,-0.0933607 41.960267,1.48432111 9.41066,3.0752592 17.35107,10.9828369 20.2793,20.1954519 1.51311,4.76044 1.39695,1.549366 1.48123,40.947791 0.0541,25.265741 0.002,36.326739 -0.17701,37.622421 -0.92899,6.72364 -4.13361,13.15431 -8.9651,17.99011 -4.1029,4.10658 -9.08903,6.93638 -15.1072,8.57388 l -2.65198,0.72159 -35.672482,0.0312 c -19.619862,0.0172 -36.033789,-0.008 -36.475394,-0.0556 z m 38.491729,-12.24839 c 6.799163,-0.74062 12.811647,-2.82413 17.864994,-6.19078 2.537564,-1.69057 6.978812,-6.25673 8.530664,-8.77058 2.293726,-3.715609 3.850588,-8.107749 4.385186,-12.371257 0.3108,-2.478684 0.323005,-76.083469 0.01269,-76.574591 -0.187522,-0.296791 -1.763626,-0.352859 -11.462177,-0.407754 l -11.244747,-0.06365 -0.06191,38.374281 -0.06191,38.37428 -0.538574,1.605835 c -1.191647,3.553063 -2.931491,5.817077 -5.537851,7.206251 -3.574939,1.905424 -9.886839,1.871584 -13.725445,-0.07358 -3.535438,-1.791543 -6.219557,-6.221996 -6.232207,-10.286986 l -0.0034,-1.089674 -8.315931,-9.17e-4 c -4.573762,-4.59e-4 -9.803685,-0.06889 -11.622047,-0.152075 l -3.306118,-0.151235 0.142974,2.618178 c 0.500474,9.164741 4.073242,16.170474 10.845573,21.266764 4.305365,3.23986 11.583197,5.89675 18.29469,6.67877 2.425215,0.28258 9.474236,0.28765 12.035543,0.009 z"
       id="path1532"
       transform="scale(0.26458333)" />
    <path
       style="fill:#f34a4a;fill-opacity:1;stroke-width:0.229405"
       d="M 26.099711,127.2094 C 19.782802,125.8775 14.601227,123.13681 9.974091,118.68007 5.1385569,114.02262 2.0976579,108.39822 0.75382614,101.62641 0.37114815,99.69803 0.34410749,97.222594 0.34410749,64.118696 c 0,-39.539041 -0.094172,-37.061969 1.60169601,-42.130529 C 5.4293567,11.576627 13.415936,4.1471358 24.316929,1.177495 l 2.638158,-0.71868501 h 36.475394 c 39.687849,0 38.485199,-0.0370163 42.297379,1.30186701 5.17942,1.819076 8.76638,4.0782653 12.65943,7.9733398 3.98952,3.9915932 6.11028,7.4136912 7.88881,12.7295352 0.73351,2.192374 0.86019,2.912843 1.04775,5.958825 0.11734,1.905704 0.21605,18.778689 0.21934,37.495524 0.006,33.175802 -0.006,34.087339 -0.45429,36.289209 -1.96242,9.62979 -8.14436,17.71256 -16.92221,22.12547 -2.32925,1.17099 -3.63514,1.6684 -6.90692,2.63083 l -2.38124,0.70047 -36.388207,-0.0161 c -34.422665,-0.0153 -36.496373,-0.0389 -38.390612,-0.43834 z m 45.245242,-12.26007 c 5.56075,-1.19092 10.974676,-3.46822 14.461983,-6.08325 2.153426,-1.61479 6.355401,-6.03836 7.741533,-8.14979 1.511473,-2.302357 3.074364,-6.003135 3.886565,-9.203022 l 0.635601,-2.50413 V 50.254293 11.499447 L 97.38242,11.322412 C 97.003902,11.225042 91.883936,11.11524 86.004717,11.078408 l -10.689486,-0.06697 -0.1499,5.829689 c -0.08244,3.206328 -0.149898,20.521182 -0.149898,38.477451 v 32.647761 l -0.570856,1.516626 c -0.95805,2.545306 -1.961949,4.18821 -3.337257,5.461504 -2.273172,2.104555 -4.796453,2.959905 -8.709161,2.952257 -4.301833,-0.0084 -7.203219,-1.032206 -9.537341,-3.365394 -1.585868,-1.585232 -3.199388,-4.523096 -3.40966,-6.208241 -0.071,-0.56897 -0.185222,-1.487005 -0.253835,-2.040078 L 49.072575,85.277427 39.734367,85.136926 C 34.598354,85.059649 29.339231,84.945442 28.047429,84.883131 l -2.348734,-0.113292 0.13295,2.11965 c 0.515347,8.216422 2.782469,13.968121 7.422011,18.829681 3.986093,4.17685 9.069164,6.95944 15.962121,8.73805 4.335612,1.11873 5.895871,1.26228 12.838274,1.18123 5.935852,-0.0693 6.640967,-0.12159 9.290902,-0.68912 z"
       id="path1839"
       transform="scale(0.26458333)" />
  </g>
  <g
     inkscape:groupmode="layer"
     id="layer2"
     inkscape:label="Shape" />
</svg>
