<?xml version="1.0" encoding="UTF-8" standalone="no"?>
<!-- Created with Inkscape (http://www.inkscape.org/) -->

<svg
   width="128"
   height="128"
   viewBox="0 0 33.866666 33.866666"
   version="1.1"
   id="svg5"
   sodipodi:docname="main.svg"
   inkscape:version="1.1 (c4e8f9ed74, 2021-05-24)"
   xmlns:inkscape="http://www.inkscape.org/namespaces/inkscape"
   xmlns:sodipodi="http://sodipodi.sourceforge.net/DTD/sodipodi-0.dtd"
   xmlns="http://www.w3.org/2000/svg"
   xmlns:svg="http://www.w3.org/2000/svg">
  <sodipodi:namedview
     id="namedview7"
     pagecolor="#505050"
     bordercolor="#eeeeee"
     borderopacity="1"
     inkscape:pageshadow="0"
     inkscape:pageopacity="0"
     inkscape:pagecheckerboard="0"
     inkscape:document-units="px"
     showgrid="false"
     showguides="true"
     inkscape:lockguides="true"
     units="px"
     scale-x="1"
     objecttolerance="20"
     inkscape:guide-bbox="true"
     guidetolerance="20"
     inkscape:zoom="4.359103"
     inkscape:cx="83.159311"
     inkscape:cy="69.853821"
     inkscape:window-width="1920"
     inkscape:window-height="1052"
     inkscape:window-x="0"
     inkscape:window-y="28"
     inkscape:window-maximized="1"
     inkscape:current-layer="layer1" />
  <defs
     id="defs2" />
  <g
     inkscape:label="Background"
     inkscape:groupmode="layer"
     id="layer1">
    <path
       id="rect544"
       style="opacity:1;fill:#f2f2f2;fill-opacity:1;fill-rule:evenodd;stroke-width:0.999999"
       d="M 32 0 C 14.272001 0 0 14.272001 0 32 L 0 96 C 0 113.728 14.272001 128 32 128 L 96 128 C 113.728 128 128 113.728 128 96 L 128 32 C 128 14.272001 113.728 0 96 0 L 32 0 z M 75.458984 11.273438 L 98.162109 11.349609 L 98.162109 83.230469 C 98.162109 89.874782 96.588803 95.64055 93.441406 100.5293 C 90.329373 105.38461 85.997463 109.14467 80.445312 111.81055 C 74.893162 114.44287 68.439699 115.74742 61.083984 115.72266 C 54.541642 115.70063 48.599732 114.57259 43.259766 112.33984 C 37.955164 110.10721 33.746799 106.7376 30.634766 102.23047 C 27.522732 97.723336 25.984167 92.046709 26.019531 85.201172 L 48.882812 85.279297 C 48.953541 89.373506 50.19095 92.565488 52.595703 94.855469 C 55.03582 97.112012 58.253867 98.246313 62.25 98.259766 C 70.984911 98.289172 75.388256 93.254757 75.458984 83.154297 L 75.458984 11.273438 z "
       transform="scale(0.26458333)" />
  </g>
  <g
     inkscape:groupmode="layer"
     id="layer2"
     inkscape:label="Shape" />
</svg>
